<svg width="33" height="18" viewBox="0 0 33 18" fill="none" xmlns="http://www.w3.org/2000/svg">
<path d="M0.125 1.83966C0.125 1.54483 0.230298 1.29211 0.440893 1.08152C0.651489 0.870923 0.904204 0.765625 1.19904 0.765625C1.49387 0.765625 1.74659 0.870923 1.95718 1.08152L16.2356 15.3599L30.2928 1.30264C30.5034 1.09205 30.7561 0.98675 31.051 0.98675C31.3458 0.98675 31.5985 1.09205 31.8091 1.30264C32.0197 1.51324 32.125 1.76595 32.125 2.06079C32.125 2.35562 32.0197 2.60834 31.8091 2.81893L16.9937 17.6343C16.7831 17.8449 16.5304 17.9502 16.2356 17.9502C15.9407 17.9502 15.688 17.8449 15.4774 17.6343L0.440893 2.6294C0.398774 2.58728 0.36192 2.53989 0.330331 2.48724C0.298741 2.4346 0.272417 2.38195 0.251357 2.3293L0.188179 2.17135L0.140795 2.0134L0.125 1.83966Z" fill="black"/>
</svg>
